<?xml version="1.0" standalone="no"?>
<!DOCTYPE svg PUBLIC "-//W3C//DTD SVG 20010904//EN"
 "http://www.w3.org/TR/2001/REC-SVG-20010904/DTD/svg10.dtd">
<svg version="1.0" xmlns="http://www.w3.org/2000/svg"
 width="96.000000pt" height="96.000000pt" viewBox="0 0 96.000000 96.000000"
 preserveAspectRatio="xMidYMid meet">

<g transform="translate(0.000000,96.000000) scale(0.100000,-0.100000)"
fill="#000000" stroke="none">
<path d="M440 917 c-138 -62 -356 -170 -361 -179 -13 -21 2 -36 62 -62 l59
-25 0 -80 0 -80 -60 -27 c-34 -15 -65 -35 -70 -45 -6 -10 -10 -46 -10 -82 0
-53 4 -67 22 -84 27 -24 390 -233 406 -233 22 0 405 186 410 199 3 8 -2 19
-11 26 -22 16 -23 93 -2 101 34 14 14 41 -55 74 -48 23 -69 39 -65 48 3 7 5
51 5 97 0 66 3 84 16 89 14 5 15 -5 10 -94 l-7 -100 31 0 30 0 -6 108 -6 108
26 17 c53 35 39 48 -168 146 -106 50 -202 91 -212 90 -10 0 -30 -5 -44 -12z
m181 -91 c63 -29 137 -64 164 -76 l50 -22 -110 -52 c-87 -42 -111 -49 -114
-37 -2 8 9 23 23 34 34 24 33 46 -4 88 -24 28 -32 32 -47 23 -33 -20 -21 -42
31 -59 18 -5 17 -8 -12 -35 -23 -20 -32 -38 -32 -59 0 -20 -7 -34 -20 -41 -17
-9 -20 -8 -20 14 0 14 5 28 10 31 6 3 10 28 10 54 0 52 -27 100 -48 87 -17
-10 -15 -46 3 -46 20 0 20 -67 1 -89 -10 -12 -15 -49 -17 -131 -2 -96 0 -115
13 -118 25 -5 37 20 40 83 l3 60 60 32 c33 18 72 37 88 42 l27 10 0 -79 0 -79
-117 -62 -118 -63 -115 61 -115 60 -3 81 c-2 45 0 82 3 82 13 0 171 -83 177
-94 25 -37 -12 -59 -46 -27 -28 26 -56 19 -56 -15 0 -13 3 -24 8 -25 28 -3 61
-9 85 -14 50 -13 57 4 57 133 l0 116 -32 33 c-34 35 -65 43 -74 18 -7 -17 13
-46 30 -44 33 6 46 -14 46 -67 0 -58 -1 -59 -31 -44 -13 8 -19 22 -19 48 -1
31 -8 43 -45 74 -49 43 -78 42 -73 -1 2 -18 9 -26 23 -27 32 0 65 -23 65 -44
0 -11 -2 -20 -4 -20 -2 0 -55 24 -117 54 l-114 53 85 39 c47 21 119 55 160 76
41 20 87 37 101 37 14 1 77 -23 140 -53z m-396 -395 c11 -19 233 -131 258
-131 14 0 76 27 139 59 l113 59 45 -23 45 -23 -50 -22 c-27 -12 -99 -44 -160
-71 l-110 -49 -160 84 c-201 107 -194 102 -175 115 19 13 47 14 55 2z m-20
-93 c39 -20 113 -60 165 -90 l95 -53 -3 -47 c-2 -27 -4 -48 -6 -48 -2 0 -77
42 -167 93 l-164 93 -3 48 c-2 26 0 46 5 44 4 -2 40 -20 78 -40z m623 -35 c-2
-11 -57 -42 -156 -87 -139 -65 -174 -86 -139 -86 7 0 75 29 152 65 102 48 141
62 146 53 5 -7 5 -16 1 -19 -6 -5 -273 -131 -310 -146 -10 -4 -12 7 -10 48 l3
53 150 68 c83 37 154 67 158 67 5 1 7 -7 5 -16z"/>
</g>
</svg>
